<svg width="120" height="40" fill="none" xmlns="http://www.w3.org/2000/svg"><path d="M110.135 0H9.535c-.367 0-.73 0-1.095.002-.306.002-.61.008-.919.013C6.85.023 6.18.082 5.517.192a6.665 6.665 0 00-1.9.627A6.438 6.438 0 00.193 5.522a12.993 12.993 0 00-.179 2.002c-.01.306-.01.614-.015.92V31.56c.005.31.006.611.015.922.008.67.068 1.34.18 2.002.11.663.32 1.305.624 1.904a6.2 6.2 0 001.179 1.614 6.282 6.282 0 001.618 1.179 6.7 6.7 0 001.901.63c.663.11 1.333.169 2.004.177.31.007.613.011.919.011.366.002.728.002 1.095.002h100.6c.359 0 .724 0 1.084-.002.304 0 .617-.004.922-.01a13.27 13.27 0 002-.177 6.805 6.805 0 001.908-.631A6.293 6.293 0 00117.666 38a6.403 6.403 0 001.182-1.614c.302-.6.51-1.242.619-1.904.111-.662.173-1.331.185-2.002.004-.311.004-.612.004-.922.008-.364.008-.725.008-1.094V9.536c0-.366 0-.73-.008-1.092 0-.306 0-.614-.004-.92a13.57 13.57 0 00-.185-2.002 6.648 6.648 0 00-.619-1.904 6.469 6.469 0 00-2.799-2.8 6.77 6.77 0 00-1.908-.627c-.661-.11-1.33-.169-2-.176-.305-.005-.618-.011-.922-.013-.36-.002-.725-.002-1.084-.002z" fill="#A6A6A6"/><path d="M8.445 39.125c-.305 0-.602-.004-.904-.01a12.696 12.696 0 01-1.87-.164 5.884 5.884 0 01-1.656-.548 5.406 5.406 0 01-1.397-1.016 5.321 5.321 0 01-1.02-1.397 5.722 5.722 0 01-.544-1.657 12.413 12.413 0 01-.166-1.875c-.007-.21-.015-.913-.015-.913v-23.1s.009-.692.015-.895a12.37 12.37 0 01.165-1.872 5.755 5.755 0 01.544-1.662c.26-.518.603-.99 1.015-1.398A5.565 5.565 0 015.668 1.05c.62-.1 1.247-.155 1.875-.163l.902-.012h102.769l.913.013a12.37 12.37 0 011.858.162 5.933 5.933 0 011.671.548 5.589 5.589 0 012.415 2.42c.261.52.441 1.076.536 1.649.103.624.161 1.255.173 1.887.003.283.003.588.003.89.008.375.008.732.008 1.092v20.929c0 .363 0 .718-.008 1.075 0 .325 0 .623-.004.93a12.53 12.53 0 01-.171 1.853 5.716 5.716 0 01-.54 1.67 5.47 5.47 0 01-1.015 1.386 5.414 5.414 0 01-1.4 1.022 5.855 5.855 0 01-1.668.55c-.618.101-1.243.156-1.869.163-.293.007-.599.011-.897.011l-1.084.002-101.69-.002z" fill="#000"/><path d="M24.769 20.3a4.948 4.948 0 012.357-4.151 5.066 5.066 0 00-3.992-2.158c-1.679-.176-3.307 1.005-4.163 1.005-.872 0-2.19-.987-3.608-.958a5.315 5.315 0 00-4.473 2.728c-1.934 3.348-.491 8.27 1.361 10.976.927 1.325 2.01 2.805 3.428 2.753 1.387-.058 1.905-.885 3.58-.885 1.658 0 2.144.885 3.59.852 1.489-.024 2.426-1.332 3.32-2.67a10.96 10.96 0 001.52-3.092 4.782 4.782 0 01-2.92-4.4zm-2.731-8.09a4.873 4.873 0 001.114-3.49 4.958 4.958 0 00-3.207 1.66 4.638 4.638 0 00-1.145 3.36 4.099 4.099 0 003.237-1.53zm20.265 14.93h-4.734l-1.136 3.356h-2.005l4.483-12.418h2.083l4.483 12.418H43.44l-1.136-3.356zm-4.243-1.55h3.752l-1.85-5.446h-.052l-1.85 5.447zm17.1.38c0 2.813-1.506 4.621-3.778 4.621a3.07 3.07 0 01-2.849-1.584h-.043v4.484h-1.858V21.443h1.799v1.505h.034a3.212 3.212 0 012.883-1.6c2.297 0 3.812 1.816 3.812 4.622zm-1.91 0c0-1.833-.947-3.038-2.393-3.038-1.42 0-2.375 1.23-2.375 3.038 0 1.824.956 3.046 2.375 3.046 1.446 0 2.393-1.196 2.393-3.046zm11.875 0c0 2.813-1.506 4.621-3.778 4.621a3.07 3.07 0 01-2.849-1.584h-.043v4.484h-1.858V21.443h1.798v1.505h.035a3.212 3.212 0 012.883-1.6c2.297 0 3.812 1.816 3.812 4.622zm-1.91 0c0-1.833-.947-3.038-2.393-3.038-1.42 0-2.375 1.23-2.375 3.038 0 1.824.955 3.046 2.375 3.046 1.446 0 2.393-1.196 2.393-3.046zm8.496 1.066c.138 1.232 1.334 2.04 2.969 2.04 1.566 0 2.693-.808 2.693-1.919 0-.964-.68-1.54-2.289-1.936l-1.61-.388c-2.28-.55-3.338-1.617-3.338-3.348 0-2.142 1.867-3.614 4.518-3.614 2.624 0 4.423 1.472 4.484 3.614h-1.876c-.113-1.239-1.137-1.987-2.634-1.987-1.497 0-2.522.757-2.522 1.858 0 .878.655 1.395 2.255 1.79l1.368.336c2.548.603 3.607 1.626 3.607 3.443 0 2.323-1.85 3.778-4.794 3.778-2.754 0-4.613-1.42-4.733-3.667h1.902zM83.347 19.3v2.142h1.721v1.472h-1.721v4.991c0 .776.344 1.137 1.101 1.137.205-.004.409-.018.612-.043v1.463c-.34.064-.687.092-1.033.086-1.833 0-2.547-.689-2.547-2.444v-5.19h-1.317v-1.472h1.317V19.3h1.867zm2.718 6.67c0-2.849 1.678-4.639 4.294-4.639 2.625 0 4.295 1.79 4.295 4.639 0 2.856-1.66 4.638-4.295 4.638-2.632 0-4.294-1.782-4.294-4.638zm6.696 0c0-1.954-.896-3.108-2.402-3.108-1.505 0-2.4 1.162-2.4 3.108 0 1.962.894 3.106 2.4 3.106 1.506 0 2.402-1.144 2.402-3.106zm3.425-4.528h1.773v1.541h.043a2.16 2.16 0 012.178-1.635 2.78 2.78 0 01.636.07v1.737a2.593 2.593 0 00-.835-.112 1.871 1.871 0 00-1.936 2.083v5.37h-1.859v-9.053zm13.199 6.395c-.25 1.643-1.851 2.771-3.899 2.771-2.633 0-4.268-1.764-4.268-4.595 0-2.84 1.643-4.682 4.19-4.682 2.505 0 4.08 1.72 4.08 4.466v.637h-6.394v.112a2.353 2.353 0 001.458 2.391c.31.127.643.186.977.173a2.05 2.05 0 002.091-1.273h1.765zm-6.282-2.702h4.526a2.173 2.173 0 00-2.221-2.298 2.292 2.292 0 00-2.305 2.298zM37.826 8.73a2.64 2.64 0 012.808 2.966c0 1.906-1.03 3.002-2.808 3.002h-2.155V8.73h2.155zm-1.228 5.124h1.125a1.877 1.877 0 001.967-2.146 1.882 1.882 0 00-1.967-2.134h-1.125v4.28zm5.082-1.41a2.134 2.134 0 114.248 0 2.132 2.132 0 11-4.247 0zm3.334 0c0-.976-.439-1.547-1.208-1.547-.773 0-1.207.571-1.207 1.547 0 .984.434 1.55 1.207 1.55.77 0 1.208-.57 1.208-1.55zm6.559 2.254h-.922l-.93-3.317h-.07l-.927 3.317h-.913l-1.242-4.503h.902l.806 3.436h.067l.925-3.436h.853l.926 3.436h.07l.803-3.436h.889l-1.237 4.503zm2.28-4.503h.856v.715h.066a1.348 1.348 0 011.344-.802 1.466 1.466 0 011.559 1.675v2.915h-.889v-2.692c0-.724-.314-1.084-.972-1.084a1.034 1.034 0 00-1.075 1.141v2.635h-.889v-4.503zm5.241-1.758h.888v6.26h-.888v-6.26zm2.124 4.007a2.133 2.133 0 114.248 0 2.134 2.134 0 11-4.248 0zm3.333 0c0-.976-.439-1.546-1.208-1.546-.772 0-1.207.57-1.207 1.546 0 .984.435 1.55 1.207 1.55.77 0 1.208-.57 1.208-1.55zm1.849.98c0-.81.604-1.277 1.675-1.344l1.22-.07v-.389c0-.476-.314-.744-.922-.744-.496 0-.84.182-.938.5h-.86c.09-.773.818-1.27 1.84-1.27 1.128 0 1.765.563 1.765 1.514v3.077h-.856v-.633h-.07a1.515 1.515 0 01-1.353.707 1.36 1.36 0 01-1.5-1.348zm2.895-.384v-.377l-1.1.07c-.62.042-.901.253-.901.65 0 .405.352.64.835.64a1.064 1.064 0 001.166-.983zm2.053-.596c0-1.423.731-2.324 1.869-2.324a1.484 1.484 0 011.38.79h.067V8.437h.889v6.26H74.7v-.71h-.07a1.563 1.563 0 01-1.414.785c-1.146 0-1.87-.901-1.87-2.328zm.918 0c0 .955.45 1.53 1.203 1.53.749 0 1.212-.583 1.212-1.526 0-.938-.468-1.53-1.212-1.53-.748 0-1.203.58-1.203 1.526zm6.964 0a2.133 2.133 0 114.247 0 2.132 2.132 0 11-4.247 0zm3.333 0c0-.976-.439-1.547-1.208-1.547-.773 0-1.207.571-1.207 1.547 0 .984.434 1.55 1.207 1.55.77 0 1.208-.57 1.208-1.55zm2.106-2.249h.855v.715h.067a1.348 1.348 0 011.344-.802 1.466 1.466 0 011.558 1.675v2.915h-.888v-2.692c0-.724-.315-1.084-.972-1.084a1.034 1.034 0 00-1.075 1.141v2.635h-.89v-4.503zm8.846-1.121v1.141h.975v.749h-.975v2.315c0 .472.194.678.636.678.114 0 .227-.007.34-.02v.74c-.16.029-.322.044-.484.046-.988 0-1.382-.348-1.382-1.216v-2.543h-.715v-.749h.715V9.074h.89zm2.19-.637h.88v2.482h.071a1.386 1.386 0 011.373-.807 1.485 1.485 0 011.551 1.678v2.908h-.89V12.01c0-.72-.334-1.084-.962-1.084a1.05 1.05 0 00-1.134 1.142v2.63h-.889V8.437zm9.056 5.045a1.823 1.823 0 01-1.951 1.303 2.048 2.048 0 01-2.01-1.447 2.05 2.05 0 01-.07-.877 2.093 2.093 0 01.071-.88 2.078 2.078 0 012.005-1.473c1.253 0 2.009.856 2.009 2.27v.31h-3.18v.05a1.19 1.19 0 001.2 1.29 1.077 1.077 0 001.071-.546h.855zm-3.126-1.451h2.275a1.094 1.094 0 00-.667-1.083 1.086 1.086 0 00-.442-.084 1.151 1.151 0 00-1.166 1.167z" fill="#fff"/></svg>