<svg width="14" height="14" fill="none" xmlns="http://www.w3.org/2000/svg"><g clip-path="url(#clip0)"><path d="M13.389.911c-.632-.34-1.337.316-1.75.705-.947.923-1.75 1.992-2.648 2.964-.997 1.07-1.92 2.139-2.94 3.183-.584.584-1.215 1.215-1.604 1.944-.875-.85-1.628-1.774-2.6-2.527-.705-.534-1.87-.923-1.847.365.049 1.676 1.531 3.474 2.625 4.616.461.486 1.069.997 1.773 1.02.85.05 1.726-.971 2.236-1.53.899-.972 1.628-2.065 2.454-3.061 1.069-1.313 2.162-2.6 3.207-3.937.656-.826 2.722-2.867 1.094-3.742z" fill="#000"/></g><defs><clipPath id="clip0"><path fill="#fff" d="M0 0h14v14H0z"/></clipPath></defs></svg>