<svg width="53" height="53" viewBox="0 0 53 53" fill="none" xmlns="http://www.w3.org/2000/svg">
<path fill-rule="evenodd" clip-rule="evenodd" d="M52 26.5C52 40.5838 40.5838 52 26.5 52C12.4162 52 1 40.5838 1 26.5C1 12.4162 12.4162 1 26.5 1C40.5838 1 52 12.4162 52 26.5Z" fill="white"/>
<path fill-rule="evenodd" clip-rule="evenodd" d="M33.1528 40.9133H29.8267V34.2612L26.5006 32.0438H24.2832V28.7177C24.2832 26.8806 25.7722 25.3916 27.6093 25.3916H32.0496L36.4789 29.8264V37.5873L33.1528 40.9133Z" fill="#E9E4EE"/>
<path fill-rule="evenodd" clip-rule="evenodd" d="M45.8229 9.86914H42.0246L39.8016 12.0865H34.2615L30.9354 15.4126H27.6093C25.7733 15.4126 24.2832 16.9016 24.2832 18.7387V20.9561H32.0441L36.4789 25.3909H38.6962L39.8049 24.2822H40.9136L44.2397 27.6083H51.9662C51.9817 27.2391 52.0006 26.8721 52.0006 26.4996C52.0006 20.1434 49.6701 14.335 45.8229 9.86914Z" fill="#E9E4EE"/>
<path fill-rule="evenodd" clip-rule="evenodd" d="M9.86937 26.5H5.43459L2.1085 29.8261H1.22266C1.82468 34.4449 3.66068 38.6735 6.3925 42.1725L9.86937 38.6957V34.2609L12.0868 32.0435V28.7174L9.86937 26.5Z" fill="#E9E4EE"/>
<path fill-rule="evenodd" clip-rule="evenodd" d="M8.76043 10.9785H6.27363C3.39213 14.7281 1.53063 19.2993 1.10156 24.2829H3.21695L5.43435 22.0655V20.9568L9.86913 16.522H12.0865V14.3046C12.0865 12.4675 10.5975 10.9785 8.76043 10.9785Z" fill="#E9E4EE"/>
<path fill-rule="evenodd" clip-rule="evenodd" d="M33.1528 40.9133H29.8267V34.2612L26.5006 32.0438H24.2832V28.7177C24.2832 26.8806 25.7722 25.3916 27.6093 25.3916H32.0496L36.4789 29.8264V37.5873L33.1528 40.9133Z" stroke="#322666" stroke-width="2"/>
<path d="M45.8229 9.86914H42.0246L39.8016 12.0865H34.2615L30.9354 15.4126H27.6093C25.7733 15.4126 24.2832 16.9016 24.2832 18.7387V20.9561H32.0441L36.4789 25.3909H38.6962L39.8049 24.2822H40.9136L44.2397 27.6083H51.9662" stroke="#322666" stroke-width="2" stroke-linecap="round" stroke-linejoin="round"/>
<path d="M6.3925 42.1725L9.86937 38.6957V34.2609L12.0868 32.0435V28.7174L9.86937 26.5H5.43459L2.1085 29.8261H1.22266" stroke="#322666" stroke-width="2" stroke-linecap="round" stroke-linejoin="round"/>
<path d="M1.10156 24.2829H3.21695L5.43435 22.0655V20.9568L9.86913 16.522H12.0865V14.3046C12.0865 12.4675 10.5975 10.9785 8.76043 10.9785H6.27363" stroke="#322666" stroke-width="2" stroke-linecap="round" stroke-linejoin="round"/>
<path fill-rule="evenodd" clip-rule="evenodd" d="M26.5 52C40.5833 52 52 40.5833 52 26.5C52 12.4167 40.5833 1 26.5 1C12.4167 1 1 12.4167 1 26.5C1 40.5833 12.4167 52 26.5 52Z" stroke="#322666" stroke-width="2"/>
</svg>
