<svg width="64" height="55" viewBox="0 0 64 55" fill="none" xmlns="http://www.w3.org/2000/svg">
<path fill-rule="evenodd" clip-rule="evenodd" d="M31.9199 0C17.3479 0 5.91992 12.428 5.91992 27V31H1.91992L8.91992 41L15.9199 31H11.9199V27C11.9199 15.954 20.8739 7 31.9199 7C38.3319 7 44.0389 10.018 47.6989 14.709L50.9519 8.757C46.1499 3.748 39.4069 0 31.9199 0Z" fill="white"/>
<path d="M31.9199 0C17.3479 0 5.91992 12.429 5.91992 27V31H1.91992L8.91992 41L15.9199 31H11.9199V27C11.9199 15.954 20.8739 7 31.9199 7C38.3319 7 44.0389 10.018 47.6989 14.709" stroke="#322666" stroke-width="2" stroke-linecap="round"/>
<path d="M37.893 0.795766C37.23 0.617766 36.557 0.468766 35.875 0.348766" stroke="#322666" stroke-width="2" stroke-linecap="round"/>
<path d="M43.1716 2.85475C42.5356 2.53075 41.8866 2.23075 41.2246 1.95775" stroke="#322666" stroke-width="2" stroke-linecap="round"/>
<path d="M47.9437 5.99899C47.3077 5.48899 46.6507 5.00199 45.9707 4.54199" stroke="#322666" stroke-width="2" stroke-linecap="round"/>
<path d="M31.945 54C46.516 54 57.945 41.571 57.945 27V23H61.945L54.945 13L47.945 23H51.945V27C51.945 38.046 42.99 47 31.945 47C25.533 47 19.826 43.982 16.166 39.291" stroke="#322666" stroke-width="2" stroke-linecap="round"/>
<path d="M25.9707 53.2042C26.6347 53.3822 27.3067 53.5312 27.9887 53.6512" stroke="#322666" stroke-width="2" stroke-linecap="round"/>
<path d="M20.6934 51.1453C21.3294 51.4693 21.9784 51.7692 22.6404 52.0422" stroke="#322666" stroke-width="2" stroke-linecap="round"/>
<path d="M15.9199 48.001C16.5549 48.511 17.2129 48.998 17.8919 49.458" stroke="#322666" stroke-width="2" stroke-linecap="round"/>
<path fill-rule="evenodd" clip-rule="evenodd" d="M31.9219 26C27.4279 26 21.9219 28.535 21.9219 30V35C21.9219 36.466 27.4279 39 31.9219 39C36.4159 39 41.9219 36.466 41.9219 35V30C41.9219 28.535 36.4159 26 31.9219 26Z" fill="#E9E4EE"/>
<path fill-rule="evenodd" clip-rule="evenodd" d="M31.9199 25.987C34.7119 25.987 36.9199 23.703 36.9199 20.885V19.183C36.9199 16.366 34.7119 14.082 31.9199 14.082C29.1279 14.082 26.9199 16.366 26.9199 19.183V20.885C26.9199 23.703 29.1279 25.987 31.9199 25.987Z" fill="white"/>
<path fill-rule="evenodd" clip-rule="evenodd" d="M31.9199 25.987C34.7119 25.987 36.9199 23.703 36.9199 20.885V19.183C36.9199 16.366 34.7119 14.082 31.9199 14.082C29.1279 14.082 26.9199 16.366 26.9199 19.183V20.885C26.9199 23.703 29.1279 25.987 31.9199 25.987Z" stroke="#322666" stroke-width="2"/>
<path d="M41.9197 35V30C41.9197 28.535 36.4157 26 31.9237 26C27.4317 26 21.9277 28.535 21.9277 30V35" stroke="#322666" stroke-width="2" stroke-linecap="round" stroke-linejoin="round"/>
</svg>
