<svg width="50" height="48" viewBox="0 0 50 48" fill="none" xmlns="http://www.w3.org/2000/svg">
<path fill-rule="evenodd" clip-rule="evenodd" d="M10.9912 31.918C6.49719 31.918 0.992188 34.453 0.992188 35.918V43.918C0.992188 45.384 6.49719 47.918 10.9912 47.918C15.4842 47.918 20.9902 45.384 20.9902 43.918V35.918C20.9902 34.453 15.4842 31.918 10.9912 31.918Z" fill="#E9E4EE"/>
<path fill-rule="evenodd" clip-rule="evenodd" d="M10.9922 31.906C13.7842 31.906 15.9922 29.622 15.9922 26.804V25.102C15.9922 22.285 13.7842 20 10.9922 20C8.20019 20 5.99219 22.285 5.99219 25.102V26.804C5.99219 29.622 8.20019 31.906 10.9922 31.906Z" fill="white"/>
<path fill-rule="evenodd" clip-rule="evenodd" d="M10.9922 31.906C13.7842 31.906 15.9922 29.622 15.9922 26.804V25.102C15.9922 22.285 13.7842 20 10.9922 20C8.20019 20 5.99219 22.285 5.99219 25.102V26.804C5.99219 29.622 8.20019 31.906 10.9922 31.906Z" stroke="#322666" stroke-width="2"/>
<path d="M20.992 43.918V35.918C20.992 34.453 15.488 31.918 10.996 31.918C6.504 31.918 1 34.453 1 35.918V43.918" stroke="#322666" stroke-width="2" stroke-linecap="round" stroke-linejoin="round"/>
<path fill-rule="evenodd" clip-rule="evenodd" d="M38.9912 11.918C34.4972 11.918 28.9922 15.453 28.9922 16.918V23.918C28.9922 25.384 34.4972 27.918 38.9912 27.918C43.4852 27.918 48.9902 25.384 48.9902 23.918V16.918C48.9902 15.453 43.4852 11.918 38.9912 11.918Z" fill="#E9E4EE"/>
<path fill-rule="evenodd" clip-rule="evenodd" d="M38.9922 11.906C41.7842 11.906 43.9922 9.622 43.9922 6.804V5.102C43.9922 2.285 41.7842 0 38.9922 0C36.2002 0 33.9922 2.285 33.9922 5.102V6.804C33.9922 9.622 36.2002 11.906 38.9922 11.906Z" fill="white"/>
<path fill-rule="evenodd" clip-rule="evenodd" d="M38.9922 11.906C41.7842 11.906 43.9922 9.622 43.9922 6.804V5.102C43.9922 2.285 41.7842 0 38.9922 0C36.2002 0 33.9922 2.285 33.9922 5.102V6.804C33.9922 9.622 36.2002 11.906 38.9922 11.906Z" stroke="#322666" stroke-width="2"/>
<path d="M48.992 23.918V16.918C48.992 15.453 43.488 11.918 38.996 11.918C34.504 11.918 29 15.453 29 16.918V23.918" stroke="#322666" stroke-width="2" stroke-linecap="round" stroke-linejoin="round"/>
<path d="M21.9922 0.917969L25.9922 4.91797L21.9922 8.91797" stroke="#322666" stroke-width="2" stroke-linecap="round" stroke-linejoin="round"/>
<path d="M25.9922 4.91797H12.9922C10.2302 4.91797 7.99219 7.15697 7.99219 9.91797V14.918" stroke="#322666" stroke-width="2" stroke-linecap="round" stroke-linejoin="round"/>
<path d="M29.9922 44.918L25.9922 40.918L29.9922 36.918" stroke="#322666" stroke-width="2" stroke-linecap="round" stroke-linejoin="round"/>
<path d="M25.9922 40.918H37.9922C40.7542 40.918 42.9922 38.679 42.9922 35.918V30.918" stroke="#322666" stroke-width="2" stroke-linecap="round" stroke-linejoin="round"/>
</svg>
