<svg width="56" height="47" viewBox="0 0 56 47" fill="none" xmlns="http://www.w3.org/2000/svg">
<path fill-rule="evenodd" clip-rule="evenodd" d="M52.2992 1H28.8992C27.4079 1 26.1992 2.2087 26.1992 3.7V25.3C26.1992 26.7913 27.4079 28 28.8992 28H38.9126L46.1918 34.9588C46.7201 35.6302 47.7992 35.2567 47.7992 34.4017V28H52.2992C53.7905 28 54.9992 26.7913 54.9992 25.3V3.7C54.9992 2.2087 53.7905 1 52.2992 1Z" fill="#E9E4EE"/>
<path fill-rule="evenodd" clip-rule="evenodd" d="M52.2992 1H28.8992C27.4079 1 26.1992 2.2087 26.1992 3.7V25.3C26.1992 26.7913 27.4079 28 28.8992 28H38.9126L46.1918 34.9588C46.7201 35.6302 47.7992 35.2567 47.7992 34.4017V28H52.2992C53.7905 28 54.9992 26.7913 54.9992 25.3V3.7C54.9992 2.2087 53.7905 1 52.2992 1Z" stroke="#322666" stroke-width="2" stroke-linecap="round"/>
<path d="M22.6 10.9004H3.7C2.2087 10.9004 1 12.1091 1 13.6004V35.2004C1 36.6917 2.2087 37.9004 3.7 37.9004H7.3V44.3021C7.3 45.1571 8.3791 45.5306 8.9074 44.8592L16.1866 37.9004H27.1C28.5913 37.9004 29.8 36.6917 29.8 35.2004V31.6004" stroke="#322666" stroke-width="2" stroke-linecap="round"/>
</svg>
