<svg width="52" height="88" viewBox="0 0 52 88" fill="none" xmlns="http://www.w3.org/2000/svg">
<path d="M42.0218 68C38.5433 73.3324 32.4757 76.568 25.9507 76.5702C19.4257 76.5723 13.3558 73.3407 9.87349 68.0106L0 71.2835C5.43379 81.3097 15.0303 88 26.0022 88C36.9671 88 46.5625 81.3226 52 71.3067L42.0218 68Z" fill="#A7C44F"/>
<path d="M10.3307 60C19.6457 53.0976 32.3168 53.0739 41.6571 59.9416L50 45.03C38.957 38.0387 28.8059 38.1229 28.8059 38.1229L48.6537 14.2538L39.5106 0H6.76578V14.3491H27.5779L2 45.1102L10.3307 60Z" fill="#322865"/>
<g style="mix-blend-mode:multiply" opacity="0.2">
<path d="M41.3772 57.9478L50 44.3149C38.5866 37.9231 28.095 38 28.095 38L9 58C18.6275 51.6894 31.7237 51.6679 41.3772 57.9466V57.9478Z" fill="url(#paint0_linear)"/>
</g>
<defs>
<linearGradient id="paint0_linear" x1="9" y1="58.0012" x2="50" y2="58.0012" gradientUnits="userSpaceOnUse">
<stop/>
<stop offset="1" stop-opacity="0.01"/>
</linearGradient>
</defs>
</svg>
