<svg width="81" height="82" viewBox="0 0 81 82" fill="none" xmlns="http://www.w3.org/2000/svg">
<path d="M63.6084 54C58.5913 61.4654 49.84 65.9952 40.4289 65.9983C31.0178 66.0013 22.2632 61.477 17.2406 54.0149L3 58.5969C10.8372 72.6336 24.6782 82 40.5031 82C56.3179 82 70.1575 72.6516 78 58.6293L63.6084 54Z" fill="#A7C44F"/>
<path d="M79.3634 11.3346L79.3845 0H45.4235V11.4575H62.2195L55.1206 19.6196V27.0979H60.4617C65.5383 27.0979 66.5384 29.9016 66.5384 32.9331C66.5384 36.1157 64.3075 38.011 61.3075 38.011C57.8459 38.011 55.8456 36.5708 55.8456 31.6446H42C42 41.497 46.9996 49 61.6152 49C75.6921 49 81 40.7388 81 32.6303C81 25.8449 77.5501 21.961 71.5255 20.5362L79.3634 11.3346Z" fill="#322865"/>
<path d="M6.76872 49C14.3373 43.3632 24.6324 43.344 32.2214 48.9524L39 36.7745C30.0275 31.0641 21.7802 31.1348 21.7802 31.1348L37.9065 11.6412L30.4767 0H3.87235V11.7184H20.7824L0 36.84L6.76872 49Z" fill="#322865"/>
</svg>
